<?xml version="1.0" encoding="UTF-8" standalone="no"?>
<!DOCTYPE svg PUBLIC "-//W3C//DTD SVG 1.1//EN"
 "http://www.w3.org/Graphics/SVG/1.1/DTD/svg11.dtd">
<!-- Generated by graphviz version 14.1.3 (20260303.0454)
 -->
<!-- Title: Workflow Pages: 1 -->
<svg width="143pt" height="193pt"
 viewBox="0.00 0.00 143.00 193.00" xmlns="http://www.w3.org/2000/svg" xmlns:xlink="http://www.w3.org/1999/xlink">
<g id="graph0" class="graph" transform="scale(1 1) rotate(0) translate(4 189)">
<title>Workflow</title>
<polygon fill="white" stroke="none" points="-4,4 -4,-189 139.25,-189 139.25,4 -4,4"/>
<!-- upper_case_executor -->
<g id="node1" class="node">
<title>upper_case_executor</title>
<polygon fill="lightgreen" stroke="black" points="132.62,-185 2.62,-185 2.62,-144 132.62,-144 132.62,-185"/>
<text xml:space="preserve" text-anchor="middle" x="67.62" y="-167.7" font-family="Times New Roman,serif" font-size="14.00">upper_case_executor</text>
<text xml:space="preserve" text-anchor="middle" x="67.62" y="-151.2" font-family="Times New Roman,serif" font-size="14.00">(Start)</text>
</g>
<!-- exclamation_adder -->
<g id="node2" class="node">
<title>exclamation_adder</title>
<polygon fill="lightblue" stroke="black" points="127.38,-108 7.88,-108 7.88,-72 127.38,-72 127.38,-108"/>
<text xml:space="preserve" text-anchor="middle" x="67.62" y="-84.95" font-family="Times New Roman,serif" font-size="14.00">exclamation_adder</text>
</g>
<!-- upper_case_executor&#45;&gt;exclamation_adder -->
<g id="edge1" class="edge">
<title>upper_case_executor&#45;&gt;exclamation_adder</title>
<path fill="none" stroke="black" d="M67.62,-143.69C67.62,-136.17 67.62,-127.44 67.62,-119.29"/>
<polygon fill="black" stroke="black" points="67.63,-109.54 72.13,-119.54 67.63,-113.32 67.63,-119.54 67.63,-119.54 67.63,-119.54 67.63,-113.32 63.13,-119.54 67.63,-109.54"/>
</g>
<!-- reverse_text_executor -->
<g id="node3" class="node">
<title>reverse_text_executor</title>
<polygon fill="lightblue" stroke="black" points="135.25,-36 0,-36 0,0 135.25,0 135.25,-36"/>
<text xml:space="preserve" text-anchor="middle" x="67.62" y="-12.95" font-family="Times New Roman,serif" font-size="14.00">reverse_text_executor</text>
</g>
<!-- exclamation_adder&#45;&gt;reverse_text_executor -->
<g id="edge2" class="edge">
<title>exclamation_adder&#45;&gt;reverse_text_executor</title>
<path fill="none" stroke="black" d="M67.62,-71.7C67.62,-64.32 67.62,-55.52 67.62,-47.25"/>
<polygon fill="black" stroke="black" points="67.63,-37.32 72.13,-47.32 67.63,-41.1 67.63,-47.32 67.63,-47.32 67.63,-47.32 67.63,-41.1 63.13,-47.32 67.63,-37.32"/>
</g>
</g>
</svg>
